<svg width="22" height="22" viewBox="0 0 22 22" fill="none" xmlns="http://www.w3.org/2000/svg">
<path d="M7.33333 17.4167C7.81956 17.4167 8.28588 17.2235 8.6297 16.8797C8.97351 16.5359 9.16667 16.0696 9.16667 15.5833C9.16667 15.0971 8.97351 14.6308 8.6297 14.287C8.28588 13.9432 7.81956 13.75 7.33333 13.75C6.8471 13.75 6.38079 13.9432 6.03697 14.287C5.69315 14.6308 5.5 15.0971 5.5 15.5833C5.5 16.0696 5.69315 16.5359 6.03697 16.8797C6.38079 17.2235 6.8471 17.4167 7.33333 17.4167ZM16.5 17.4167C16.9862 17.4167 17.4525 17.2235 17.7964 16.8797C18.1402 16.5359 18.3333 16.0696 18.3333 15.5833C18.3333 15.0971 18.1402 14.6308 17.7964 14.287C17.4525 13.9432 16.9862 13.75 16.5 13.75C16.0138 13.75 15.5475 13.9432 15.2036 14.287C14.8598 14.6308 14.6667 15.0971 14.6667 15.5833C14.6667 16.0696 14.8598 16.5359 15.2036 16.8797C15.5475 17.2235 16.0138 17.4167 16.5 17.4167Z" stroke="#FEAF00" stroke-width="1.2" stroke-miterlimit="1.5" stroke-linecap="round" stroke-linejoin="round"/>
<path d="M9.21258 15.5833H13.7501V6.05C13.7501 5.90413 13.6921 5.76424 13.589 5.66109C13.4858 5.55795 13.3459 5.5 13.2001 5.5H0.916748M5.17925 15.5833H3.30008C3.22785 15.5833 3.15633 15.5691 3.08961 15.5415C3.02288 15.5138 2.96224 15.4733 2.91117 15.4222C2.8601 15.3712 2.81959 15.3105 2.79195 15.2438C2.76431 15.1771 2.75008 15.1056 2.75008 15.0333V10.5417" stroke="#FEAF00" stroke-width="1.2" stroke-linecap="round"/>
<path d="M1.8335 8.25H5.50016" stroke="#FEAF00" stroke-width="1.2" stroke-linecap="round" stroke-linejoin="round"/>
<path d="M13.75 8.25H18.8925C18.9988 8.25003 19.1028 8.28086 19.192 8.33878C19.2811 8.3967 19.3516 8.47921 19.3948 8.57633L21.0357 12.2687C21.0669 12.3388 21.0832 12.4147 21.0833 12.4914V15.0333C21.0833 15.1056 21.0691 15.1771 21.0415 15.2438C21.0138 15.3105 20.9733 15.3712 20.9222 15.4222C20.8712 15.4733 20.8105 15.5138 20.7438 15.5415C20.6771 15.5691 20.6056 15.5833 20.5333 15.5833H18.7917M13.75 15.5833H14.6667" stroke="#FEAF00" stroke-width="1.2" stroke-linecap="round"/>
</svg>
