<svg width="39" height="38" viewBox="0 0 39 38" fill="none" xmlns="http://www.w3.org/2000/svg">
<path d="M16.6789 5.80283C16.9759 5.47112 17.3395 5.20577 17.746 5.0241C18.1525 4.84243 18.5928 4.74854 19.038 4.74854C19.4833 4.74854 19.9235 4.84243 20.33 5.0241C20.7366 5.20577 21.1002 5.47112 21.3972 5.80283L22.5055 7.041C22.8223 7.39487 23.2146 7.67295 23.6534 7.85467C24.0922 8.03638 24.5662 8.11706 25.0404 8.09075L26.7029 7.99891C27.1476 7.9744 27.5925 8.04396 28.0084 8.20304C28.4244 8.36213 28.8021 8.60716 29.1169 8.92214C29.4318 9.23712 29.6766 9.61497 29.8355 10.031C29.9944 10.447 30.0638 10.8919 30.039 11.3366L29.9472 12.9975C29.9211 13.4714 30.0019 13.9452 30.1836 14.3837C30.3653 14.8222 30.6433 15.2142 30.9969 15.5308L32.2351 16.6392C32.5671 16.9362 32.8327 17.2999 33.0145 17.7066C33.1963 18.1132 33.2903 18.5537 33.2903 18.9991C33.2903 19.4446 33.1963 19.885 33.0145 20.2917C32.8327 20.6983 32.5671 21.0621 32.2351 21.3591L30.9969 22.4674C30.6431 22.7842 30.365 23.1765 30.1833 23.6153C30.0016 24.0541 29.9209 24.5281 29.9472 25.0023L30.039 26.6648C30.0635 27.1095 29.994 27.5543 29.8349 27.9703C29.6758 28.3863 29.4308 28.764 29.1158 29.0788C28.8008 29.3937 28.423 29.6385 28.0069 29.7974C27.5909 29.9563 27.146 30.0256 26.7014 30.0009L25.0404 29.9091C24.5665 29.883 24.0928 29.9638 23.6543 30.1455C23.2158 30.3272 22.8237 30.6052 22.5071 30.9588L21.3988 32.197C21.1018 32.529 20.738 32.7945 20.3314 32.9764C19.9247 33.1582 19.4843 33.2522 19.0388 33.2522C18.5934 33.2522 18.1529 33.1582 17.7463 32.9764C17.3396 32.7945 16.9759 32.529 16.6789 32.197L15.5705 30.9588C15.2538 30.605 14.8615 30.3269 14.4227 30.1452C13.9839 29.9635 13.5098 29.8828 13.0356 29.9091L11.3731 30.0009C10.9284 30.0254 10.4836 29.9559 10.0676 29.7968C9.65167 29.6377 9.27394 29.3927 8.95911 29.0777C8.64428 28.7627 8.39942 28.3849 8.24054 27.9688C8.08165 27.5528 8.01231 27.1079 8.03703 26.6632L8.12886 25.0023C8.15494 24.5284 8.07413 24.0546 7.89243 23.6161C7.71072 23.1776 7.43277 22.7856 7.07911 22.469L5.84095 21.3607C5.50897 21.0636 5.2434 20.6999 5.06157 20.2933C4.87975 19.8866 4.78577 19.4462 4.78577 19.0007C4.78577 18.5553 4.87975 18.1148 5.06157 17.7082C5.2434 17.3015 5.50897 16.9378 5.84095 16.6407L7.07911 15.5324C7.43298 15.2157 7.71107 14.8233 7.89278 14.3845C8.07449 13.9458 8.15518 13.4717 8.12886 12.9975L8.03703 11.335C8.01275 10.8905 8.08248 10.4458 8.24166 10.03C8.40085 9.61424 8.64592 9.23671 8.96088 8.92205C9.27583 8.60739 9.6536 8.36268 10.0695 8.20389C10.4854 8.0451 10.9302 7.97579 11.3747 8.0005L13.0356 8.09233C13.5096 8.11841 13.9833 8.0376 14.4218 7.8559C14.8603 7.67419 15.2524 7.39623 15.5689 7.04258L16.6773 5.80441L16.6789 5.80283Z" stroke="#B31942" stroke-width="2"/>
<path d="M15.0797 15.0415H15.0955V15.0573H15.0797V15.0415ZM22.9964 22.9582H23.0122V22.974H22.9964V22.9582Z" stroke="#B31942" stroke-width="2" stroke-linejoin="round"/>
<path d="M23.7881 14.25L14.2881 23.75" stroke="#B31942" stroke-width="2" stroke-linecap="round" stroke-linejoin="round"/>
</svg>
