<svg width="18" height="30" viewBox="0 0 18 30" fill="none" xmlns="http://www.w3.org/2000/svg">
<path d="M12.0068 13.8125H6.06933C5.1595 13.8125 4.28693 13.4511 3.64358 12.8077C3.00023 12.1644 2.63879 11.2918 2.63879 10.382C2.63879 9.47213 3.00023 8.59956 3.64358 7.9562C4.28693 7.31285 5.1595 6.95142 6.06933 6.95142H15.5693V4.57642H10.5225V0.15625H8.14746V4.57642H6.06933C4.52961 4.57642 3.05295 5.18808 1.9642 6.27682C0.875447 7.36557 0.263794 8.84224 0.263794 10.382C0.263794 11.9217 0.875447 13.3983 1.9642 14.4871C3.05295 15.5758 4.52961 16.1875 6.06933 16.1875H12.0068C12.9164 16.1885 13.7883 16.5503 14.4315 17.1934C15.0746 17.8365 15.4363 18.7085 15.4374 19.618V19.882C15.4363 20.7915 15.0746 21.6635 14.4315 22.3066C13.7883 22.9497 12.9164 23.3115 12.0068 23.3125H1.95709V25.6875H8.14746V29.8438H10.5225V25.6875H12.0068C13.546 25.6858 15.0217 25.0736 16.1101 23.9852C17.1984 22.8968 17.8106 21.4212 17.8124 19.882V19.618C17.8106 18.0788 17.1984 16.6032 16.1101 15.5148C15.0217 14.4264 13.546 13.8142 12.0068 13.8125Z" fill="#B31942"/>
</svg>
