<svg width="39" height="38" viewBox="0 0 39 38" fill="none" xmlns="http://www.w3.org/2000/svg">
<path d="M9.80732 19.0007V12.9318C9.82534 11.7388 10.0786 10.5612 10.5526 9.46627C11.0265 8.37137 11.7119 7.38074 12.5694 6.55115C13.4269 5.72156 14.4397 5.06932 15.5497 4.6318C16.6597 4.19428 17.8451 3.98007 19.0381 4.00146C20.231 3.98007 21.4165 4.19428 22.5265 4.6318C23.6365 5.06932 24.6493 5.72156 25.5068 6.55115C26.3643 7.38074 27.0496 8.37137 27.5236 9.46627C27.9976 10.5612 28.2508 11.7388 28.2689 12.9318V19.0007M23.6535 31.1155C24.8775 31.1155 26.0515 30.6293 26.917 29.7638C27.7826 28.8983 28.2689 27.7244 28.2689 26.5004V21.3083M23.6535 31.1155C23.6535 31.8805 23.3496 32.6142 22.8086 33.1552C22.2676 33.6961 21.5339 34 20.7689 34H17.3073C16.5423 34 15.8086 33.6961 15.2676 33.1552C14.7266 32.6142 14.4227 31.8805 14.4227 31.1155C14.4227 30.3505 14.7266 29.6168 15.2676 29.0759C15.8086 28.5349 16.5423 28.231 17.3073 28.231H20.7689C21.5339 28.231 22.2676 28.5349 22.8086 29.0759C23.3496 29.6168 23.6535 30.3505 23.6535 31.1155ZM6.34578 15.5394H8.65347C8.95949 15.5394 9.25297 15.6609 9.46936 15.8773C9.68575 16.0937 9.80732 16.3871 9.80732 16.6931V23.6159C9.80732 23.9219 9.68575 24.2154 9.46936 24.4317C9.25297 24.6481 8.95949 24.7697 8.65347 24.7697H6.34578C5.73374 24.7697 5.14677 24.5266 4.71399 24.0938C4.28122 23.661 4.03809 23.0741 4.03809 22.4621V17.8469C4.03809 17.2349 4.28122 16.648 4.71399 16.2152C5.14677 15.7825 5.73374 15.5394 6.34578 15.5394ZM31.7304 24.7697H29.4227C29.1167 24.7697 28.8232 24.6481 28.6068 24.4317C28.3904 24.2154 28.2689 23.9219 28.2689 23.6159V16.6931C28.2689 16.3871 28.3904 16.0937 28.6068 15.8773C28.8232 15.6609 29.1167 15.5394 29.4227 15.5394H31.7304C32.3424 15.5394 32.9294 15.7825 33.3622 16.2152C33.795 16.648 34.0381 17.2349 34.0381 17.8469V22.4621C34.0381 23.0741 33.795 23.661 33.3622 24.0938C32.9294 24.5266 32.3424 24.7697 31.7304 24.7697Z" stroke="#B31942" stroke-width="2" stroke-linecap="round" stroke-linejoin="round"/>
</svg>
