<svg width="19" height="20" viewBox="0 0 19 20" fill="none" xmlns="http://www.w3.org/2000/svg">
<path d="M10.7084 1.66666C12.407 1.84564 13.9936 2.59899 15.2058 3.80214C16.4181 5.0053 17.1834 6.58617 17.3751 8.28333M10.7084 4.99999C11.528 5.16161 12.2801 5.56585 12.8671 6.16025C13.4541 6.75465 13.8488 7.51177 14.0001 8.33333M17.3334 14.1V16.6C17.3344 16.8321 17.2868 17.0618 17.1939 17.2745C17.1009 17.4871 16.9645 17.678 16.7935 17.8349C16.6225 17.9918 16.4206 18.1112 16.2007 18.1856C15.9809 18.2599 15.7479 18.2876 15.5168 18.2667C12.9525 17.988 10.4893 17.1118 8.32511 15.7083C6.31163 14.4289 4.60455 12.7218 3.32511 10.7083C1.91676 8.53433 1.04031 6.05916 0.766774 3.48333C0.745949 3.25288 0.773336 3.02063 0.847191 2.80135C0.921045 2.58207 1.03975 2.38057 1.19575 2.20968C1.35174 2.03879 1.54161 1.90225 1.75327 1.80876C1.96492 1.71527 2.19372 1.66688 2.42511 1.66666H4.92511C5.32953 1.66268 5.7216 1.80589 6.02824 2.0696C6.33488 2.33332 6.53517 2.69953 6.59177 3.09999C6.69729 3.90005 6.89298 4.6856 7.17511 5.44166C7.28723 5.73993 7.31149 6.06409 7.24503 6.37573C7.17857 6.68737 7.02416 6.97342 6.80011 7.19999L5.74177 8.25833C6.92807 10.3446 8.65549 12.072 10.7418 13.2583L11.8001 12.2C12.0267 11.9759 12.3127 11.8215 12.6244 11.7551C12.936 11.6886 13.2602 11.7129 13.5584 11.825C14.3145 12.1071 15.1001 12.3028 15.9001 12.4083C16.3049 12.4654 16.6746 12.6693 16.9389 12.9812C17.2032 13.2931 17.3436 13.6913 17.3334 14.1Z" stroke="#0A3161" stroke-width="1.5" stroke-linecap="round" stroke-linejoin="round"/>
</svg>
