<svg width="15" height="14" viewBox="0 0 15 14" fill="none" xmlns="http://www.w3.org/2000/svg">
<path d="M13.9445 9.65264H4.63984L5.10703 8.6416L12.8695 8.62666C13.132 8.62666 13.357 8.42744 13.4039 8.15186L14.4789 1.75859C14.507 1.59092 14.4648 1.41826 14.3617 1.28711C14.3107 1.22256 14.2472 1.17057 14.1754 1.13474C14.1036 1.0989 14.0254 1.08008 13.9461 1.07959L4.07109 1.04473L3.98672 0.623047C3.93359 0.354102 3.70547 0.158203 3.44609 0.158203H1.03203C0.885748 0.158203 0.745456 0.219946 0.642018 0.329849C0.53858 0.439752 0.480469 0.588812 0.480469 0.744238C0.480469 0.899665 0.53858 1.04872 0.642018 1.15863C0.745456 1.26853 0.885748 1.33027 1.03203 1.33027H2.99922L3.36797 3.19297L4.27578 7.86299L3.10703 9.89004C3.04634 9.97708 3.00978 10.0804 3.00149 10.1884C2.99321 10.2964 3.01353 10.4046 3.06016 10.501C3.15391 10.6985 3.34297 10.823 3.55234 10.823H4.53359C4.3244 11.1183 4.21141 11.4778 4.21172 11.8474C4.21172 12.787 4.93047 13.5507 5.81484 13.5507C6.69922 13.5507 7.41797 12.787 7.41797 11.8474C7.41797 11.4771 7.30234 11.1169 7.09609 10.823H9.61328C9.40409 11.1183 9.2911 11.4778 9.2914 11.8474C9.2914 12.787 10.0102 13.5507 10.8945 13.5507C11.7789 13.5507 12.4977 12.787 12.4977 11.8474C12.4977 11.4771 12.382 11.1169 12.1758 10.823H13.9461C14.2492 10.823 14.4977 10.5607 14.4977 10.237C14.4967 10.0817 14.4381 9.93317 14.3345 9.82369C14.2308 9.71421 14.0907 9.65272 13.9445 9.65264ZM4.30078 2.2002L13.2977 2.23174L12.4164 7.47451L5.34922 7.48779L4.30078 2.2002ZM5.81484 12.372C5.54297 12.372 5.32109 12.1362 5.32109 11.8474C5.32109 11.5585 5.54297 11.3228 5.81484 11.3228C6.08672 11.3228 6.30859 11.5585 6.30859 11.8474C6.30859 11.9865 6.25657 12.1199 6.16398 12.2183C6.07138 12.3167 5.94579 12.372 5.81484 12.372ZM10.8945 12.372C10.6227 12.372 10.4008 12.1362 10.4008 11.8474C10.4008 11.5585 10.6227 11.3228 10.8945 11.3228C11.1664 11.3228 11.3883 11.5585 11.3883 11.8474C11.3883 11.9865 11.3363 12.1199 11.2437 12.2183C11.1511 12.3167 11.0255 12.372 10.8945 12.372Z" fill="#0A3161"/>
</svg>
