<svg width="38" height="24" viewBox="0 0 38 24" fill="none" xmlns="http://www.w3.org/2000/svg">
<path d="M12.7046 22.0833C13.5444 22.0833 14.3499 21.7497 14.9437 21.1558C15.5376 20.562 15.8712 19.7565 15.8712 18.9167C15.8712 18.0768 15.5376 17.2714 14.9437 16.6775C14.3499 16.0836 13.5444 15.75 12.7046 15.75C11.8647 15.75 11.0593 16.0836 10.4654 16.6775C9.87153 17.2714 9.5379 18.0768 9.5379 18.9167C9.5379 19.7565 9.87153 20.562 10.4654 21.1558C11.0593 21.7497 11.8647 22.0833 12.7046 22.0833ZM28.5379 22.0833C29.3778 22.0833 30.1832 21.7497 30.7771 21.1558C31.3709 20.562 31.7046 19.7565 31.7046 18.9167C31.7046 18.0768 31.3709 17.2714 30.7771 16.6775C30.1832 16.0836 29.3778 15.75 28.5379 15.75C27.698 15.75 26.8926 16.0836 26.2987 16.6775C25.7049 17.2714 25.3712 18.0768 25.3712 18.9167C25.3712 19.7565 25.7049 20.562 26.2987 21.1558C26.8926 21.7497 27.698 22.0833 28.5379 22.0833Z" stroke="#B31942" stroke-width="1.9" stroke-miterlimit="1.5" stroke-linecap="round" stroke-linejoin="round"/>
<path d="M15.9506 18.9167H23.7881V2.45C23.7881 2.19804 23.688 1.95641 23.5098 1.77825C23.3317 1.60009 23.09 1.5 22.8381 1.5H1.6214M8.9839 18.9167H5.73807C5.61331 18.9167 5.48978 18.8921 5.37452 18.8444C5.25926 18.7966 5.15453 18.7266 5.06631 18.6384C4.9781 18.5502 4.90812 18.4455 4.86038 18.3302C4.81264 18.215 4.78807 18.0914 4.78807 17.9667V10.2083" stroke="#B31942" stroke-width="1.9" stroke-linecap="round"/>
<path d="M3.20459 6.25H9.53792" stroke="#B31942" stroke-width="1.9" stroke-linecap="round" stroke-linejoin="round"/>
<path d="M23.7879 6.25H32.6704C32.854 6.25004 33.0337 6.30331 33.1877 6.40335C33.3417 6.50338 33.4634 6.64591 33.5381 6.81367L36.3722 13.1913C36.4262 13.3124 36.4543 13.4435 36.4546 13.5761V17.9667C36.4546 18.0914 36.43 18.215 36.3823 18.3302C36.3345 18.4455 36.2645 18.5502 36.1763 18.6384C36.0881 18.7266 35.9834 18.7966 35.8681 18.8444C35.7529 18.8921 35.6293 18.9167 35.5046 18.9167H32.4962M23.7879 18.9167H25.3712" stroke="#B31942" stroke-width="1.9" stroke-linecap="round"/>
</svg>
