<svg width="16" height="18" viewBox="0 0 16 18" fill="none" xmlns="http://www.w3.org/2000/svg">
<path fill-rule="evenodd" clip-rule="evenodd" d="M8.00024 9.83334C9.99691 9.83334 11.8127 10.4117 13.1486 11.2258C13.8152 11.6342 14.3852 12.1133 14.7969 12.6342C15.2019 13.1475 15.5002 13.7608 15.5002 14.4167C15.5002 15.1208 15.1577 15.6758 14.6644 16.0717C14.1977 16.4467 13.5819 16.695 12.9277 16.8683C11.6127 17.2158 9.85774 17.3333 8.00024 17.3333C6.14274 17.3333 4.38774 17.2167 3.07274 16.8683C2.41858 16.695 1.80274 16.4467 1.33608 16.0717C0.841911 15.675 0.500244 15.1208 0.500244 14.4167C0.500244 13.7608 0.798578 13.1475 1.20358 12.6342C1.61524 12.1133 2.18441 11.6342 2.85191 11.2258C4.18774 10.4117 6.00441 9.83334 8.00024 9.83334ZM8.00024 11.5C6.31441 11.5 4.79774 11.9917 3.72024 12.6492C3.18108 12.9775 2.77441 13.3342 2.51191 13.6675C2.24191 14.0092 2.16691 14.2675 2.16691 14.4167C2.16691 14.5183 2.19774 14.6258 2.37941 14.7717C2.58691 14.9383 2.94774 15.1108 3.49941 15.2567C4.59774 15.5483 6.17608 15.6667 8.00024 15.6667C9.82524 15.6667 11.4027 15.5475 12.5002 15.2567C13.0527 15.1108 13.4136 14.9383 13.6211 14.7717C13.8027 14.6258 13.8336 14.5183 13.8336 14.4167C13.8336 14.2667 13.7586 14.0092 13.4894 13.6675C13.2261 13.3342 12.8194 12.9775 12.2802 12.6492C11.2027 11.9908 9.68608 11.5 8.00024 11.5ZM8.00024 0.666672C9.10531 0.666672 10.1651 1.10566 10.9465 1.88706C11.7279 2.66846 12.1669 3.72827 12.1669 4.83334C12.1669 5.93841 11.7279 6.99821 10.9465 7.77962C10.1651 8.56102 9.10531 9 8.00024 9C6.89518 9 5.83537 8.56102 5.05397 7.77962C4.27256 6.99821 3.83358 5.93841 3.83358 4.83334C3.83358 3.72827 4.27256 2.66846 5.05397 1.88706C5.83537 1.10566 6.89518 0.666672 8.00024 0.666672ZM8.00024 2.33334C7.67194 2.33334 7.34685 2.398 7.04354 2.52364C6.74022 2.64928 6.46462 2.83343 6.23248 3.06557C6.00033 3.29772 5.81618 3.57332 5.69055 3.87663C5.56491 4.17994 5.50024 4.50503 5.50024 4.83334C5.50024 5.16164 5.56491 5.48673 5.69055 5.79005C5.81618 6.09336 6.00033 6.36896 6.23248 6.60111C6.46462 6.83325 6.74022 7.0174 7.04354 7.14304C7.34685 7.26867 7.67194 7.33334 8.00024 7.33334C8.66329 7.33334 9.29917 7.06995 9.76801 6.60111C10.2369 6.13226 10.5002 5.49638 10.5002 4.83334C10.5002 4.1703 10.2369 3.53441 9.76801 3.06557C9.29917 2.59673 8.66329 2.33334 8.00024 2.33334Z" fill="#303030"/>
</svg>
